<mxfile host="app.diagrams.net" agent="Mozilla/5.0 (Macintosh; Intel Mac OS X 10_15_7) AppleWebKit/537.36 (KHTML, like Gecko) Chrome/133.0.0.0 Safari/537.36" version="26.0.16">
  <diagram name="Page-1" id="bMkQi4LUkBumB_ERH-x5">
    <mxGraphModel grid="1" page="1" gridSize="10" guides="1" tooltips="1" connect="1" arrows="1" fold="1" pageScale="1" pageWidth="827" pageHeight="1169" math="0" shadow="0">
      <root>
        <mxCell id="0" />
        <mxCell id="1" parent="0" />
        <mxCell id="gRLEZft_RLnqoSNP3DV3-1" value="&lt;font style=&quot;font-size: 14px;&quot;&gt;&lt;b&gt;Enterprise Serial Bus&lt;/b&gt;&lt;br&gt;&lt;br&gt;aka Trust Integration Engine&lt;/font&gt;" style="rounded=1;whiteSpace=wrap;html=1;fillColor=#dae8fc;strokeColor=#6c8ebf;" vertex="1" parent="1">
          <mxGeometry x="90" y="260" width="170" height="90" as="geometry" />
        </mxCell>
        <mxCell id="gRLEZft_RLnqoSNP3DV3-2" value="&lt;span style=&quot;font-size: 14px;&quot;&gt;&lt;b&gt;Enterprise&lt;br&gt;Exchange Format&lt;/b&gt;&lt;/span&gt;" style="rounded=1;whiteSpace=wrap;html=1;fillColor=#dae8fc;strokeColor=#6c8ebf;" vertex="1" parent="1">
          <mxGeometry x="390" y="120" width="170" height="90" as="geometry" />
        </mxCell>
        <mxCell id="gRLEZft_RLnqoSNP3DV3-4" value="&lt;div&gt;&lt;span style=&quot;font-size: 14px;&quot;&gt;&lt;b&gt;Enterprise Canonical Data Model&lt;/b&gt;&lt;/span&gt;&lt;/div&gt;" style="rounded=1;whiteSpace=wrap;html=1;fillColor=#dae8fc;strokeColor=#6c8ebf;" vertex="1" parent="1">
          <mxGeometry x="690" y="120" width="170" height="90" as="geometry" />
        </mxCell>
        <mxCell id="gRLEZft_RLnqoSNP3DV3-5" value="" style="shape=flexArrow;endArrow=classic;html=1;rounded=0;fillColor=#dae8fc;strokeColor=#6c8ebf;" edge="1" parent="1">
          <mxGeometry width="50" height="50" relative="1" as="geometry">
            <mxPoint x="580" y="164.5" as="sourcePoint" />
            <mxPoint x="670" y="164.5" as="targetPoint" />
          </mxGeometry>
        </mxCell>
        <mxCell id="gRLEZft_RLnqoSNP3DV3-6" value="" style="shape=flexArrow;endArrow=classic;html=1;rounded=0;fillColor=#dae8fc;strokeColor=#6c8ebf;" edge="1" parent="1">
          <mxGeometry width="50" height="50" relative="1" as="geometry">
            <mxPoint x="280" y="300" as="sourcePoint" />
            <mxPoint x="370" y="210" as="targetPoint" />
          </mxGeometry>
        </mxCell>
        <mxCell id="gRLEZft_RLnqoSNP3DV3-8" value="" style="verticalLabelPosition=bottom;verticalAlign=top;html=1;shape=mxgraph.basic.tick;fillColor=#d5e8d4;strokeColor=#82b366;" vertex="1" parent="1">
          <mxGeometry x="620" y="90" width="25" height="40" as="geometry" />
        </mxCell>
        <mxCell id="gRLEZft_RLnqoSNP3DV3-10" value="" style="verticalLabelPosition=bottom;verticalAlign=top;html=1;shape=mxgraph.basic.x;fillColor=#f8cecc;strokeColor=#b85450;" vertex="1" parent="1">
          <mxGeometry x="545.5" y="240" width="30" height="30" as="geometry" />
        </mxCell>
        <mxCell id="gRLEZft_RLnqoSNP3DV3-11" value="&lt;span style=&quot;font-size: 14px;&quot;&gt;&lt;br&gt;Custom Payload Transform&lt;/span&gt;&lt;div&gt;&lt;span style=&quot;font-size: 14px;&quot;&gt;&lt;b&gt;&lt;br&gt;&lt;/b&gt;&lt;/span&gt;&lt;/div&gt;" style="rounded=1;whiteSpace=wrap;html=1;fillColor=#dae8fc;strokeColor=#6c8ebf;" vertex="1" parent="1">
          <mxGeometry x="450" y="310" width="170" height="90" as="geometry" />
        </mxCell>
        <mxCell id="gRLEZft_RLnqoSNP3DV3-12" value="" style="shape=flexArrow;endArrow=classic;html=1;rounded=0;fillColor=#dae8fc;strokeColor=#6c8ebf;" edge="1" parent="1">
          <mxGeometry width="50" height="50" relative="1" as="geometry">
            <mxPoint x="480" y="220" as="sourcePoint" />
            <mxPoint x="520" y="300" as="targetPoint" />
          </mxGeometry>
        </mxCell>
        <mxCell id="gRLEZft_RLnqoSNP3DV3-13" value="&lt;span style=&quot;font-size: 14px;&quot;&gt;&lt;b&gt;Health Information Exchange&lt;/b&gt;&lt;br&gt;&lt;br&gt;aka IHE XDS/XCA and Trust Integration Engine&lt;b&gt;&amp;nbsp;&lt;/b&gt;&lt;/span&gt;" style="rounded=1;whiteSpace=wrap;html=1;fillColor=#dae8fc;strokeColor=#6c8ebf;" vertex="1" parent="1">
          <mxGeometry x="90" y="-20" width="170" height="90" as="geometry" />
        </mxCell>
        <mxCell id="gRLEZft_RLnqoSNP3DV3-14" value="" style="shape=flexArrow;endArrow=classic;html=1;rounded=0;fillColor=#dae8fc;strokeColor=#6c8ebf;" edge="1" parent="1">
          <mxGeometry width="50" height="50" relative="1" as="geometry">
            <mxPoint x="280" y="20" as="sourcePoint" />
            <mxPoint x="370" y="110" as="targetPoint" />
          </mxGeometry>
        </mxCell>
        <mxCell id="gRLEZft_RLnqoSNP3DV3-15" value="&lt;span style=&quot;font-size: 14px;&quot;&gt;&lt;b&gt;Enterprise Service/Application&lt;/b&gt;&lt;br&gt;&lt;br&gt;e.g. PDS&lt;/span&gt;" style="rounded=1;whiteSpace=wrap;html=1;fillColor=#dae8fc;strokeColor=#6c8ebf;" vertex="1" parent="1">
          <mxGeometry x="85" y="120" width="170" height="90" as="geometry" />
        </mxCell>
        <mxCell id="gRLEZft_RLnqoSNP3DV3-16" value="" style="shape=flexArrow;endArrow=classic;html=1;rounded=0;fillColor=#dae8fc;strokeColor=#6c8ebf;" edge="1" parent="1">
          <mxGeometry width="50" height="50" relative="1" as="geometry">
            <mxPoint x="280" y="170" as="sourcePoint" />
            <mxPoint x="370" y="170" as="targetPoint" />
          </mxGeometry>
        </mxCell>
        <mxCell id="gRLEZft_RLnqoSNP3DV3-18" value="" style="shape=mxgraph.signs.travel.pound;html=1;pointerEvents=1;fillColor=#000000;strokeColor=none;verticalLabelPosition=bottom;verticalAlign=top;align=center;" vertex="1" parent="1">
          <mxGeometry x="430" y="336" width="35" height="38" as="geometry" />
        </mxCell>
        <mxCell id="gRLEZft_RLnqoSNP3DV3-21" value="Is common across standards&lt;br&gt;i.e. XDS, HL7 v2, FHIR, DICOM. etc" style="rounded=1;whiteSpace=wrap;html=1;fillColor=#fff2cc;strokeColor=#d6b656;" vertex="1" parent="1">
          <mxGeometry x="645" y="-50" width="180" height="60" as="geometry" />
        </mxCell>
        <mxCell id="gRLEZft_RLnqoSNP3DV3-22" value="" style="endArrow=classic;html=1;rounded=0;strokeWidth=3;fillColor=#fff2cc;strokeColor=#d6b656;" edge="1" parent="1">
          <mxGeometry width="50" height="50" relative="1" as="geometry">
            <mxPoint x="720" y="20" as="sourcePoint" />
            <mxPoint x="650" y="80" as="targetPoint" />
          </mxGeometry>
        </mxCell>
        <mxCell id="gRLEZft_RLnqoSNP3DV3-26" value="Supports Workflow / Clinical Process&lt;br&gt;Event Based (mostly HL7 v2 plus IHE)" style="rounded=1;whiteSpace=wrap;html=1;fillColor=#fff2cc;strokeColor=#d6b656;" vertex="1" parent="1">
          <mxGeometry x="85" y="360" width="180" height="60" as="geometry" />
        </mxCell>
        <mxCell id="gRLEZft_RLnqoSNP3DV3-27" value="Supports Clinical Data Sharing&lt;br&gt;HL7 FHIR and XDS" style="rounded=1;whiteSpace=wrap;html=1;fillColor=#fff2cc;strokeColor=#d6b656;" vertex="1" parent="1">
          <mxGeometry x="90" y="-70" width="170" height="35" as="geometry" />
        </mxCell>
        <mxCell id="gRLEZft_RLnqoSNP3DV3-30" value="E,g. XDS, HL7 v2, FHIR, DICOM&lt;br&gt;JSON / XML" style="rounded=1;whiteSpace=wrap;html=1;fillColor=#fff2cc;strokeColor=#d6b656;" vertex="1" parent="1">
          <mxGeometry x="390" y="50" width="170" height="60" as="geometry" />
        </mxCell>
        <mxCell id="gRLEZft_RLnqoSNP3DV3-33" value="&lt;span style=&quot;font-size: 14px;&quot;&gt;&lt;b&gt;Adaptor&lt;/b&gt;&lt;br&gt;&lt;br&gt;Open Host Service (DDD)&lt;/span&gt;&lt;div&gt;&lt;span style=&quot;font-size: 14px;&quot;&gt;&lt;b&gt;&lt;br&gt;&lt;/b&gt;&lt;/span&gt;&lt;/div&gt;" style="rounded=1;whiteSpace=wrap;html=1;fillColor=#dae8fc;strokeColor=#6c8ebf;" vertex="1" parent="1">
          <mxGeometry x="990" y="120" width="170" height="90" as="geometry" />
        </mxCell>
        <mxCell id="gRLEZft_RLnqoSNP3DV3-34" value="" style="shape=flexArrow;endArrow=classic;html=1;rounded=0;fillColor=#dae8fc;strokeColor=#6c8ebf;" edge="1" parent="1">
          <mxGeometry width="50" height="50" relative="1" as="geometry">
            <mxPoint x="880" y="164.5" as="sourcePoint" />
            <mxPoint x="970" y="164.5" as="targetPoint" />
          </mxGeometry>
        </mxCell>
        <mxCell id="gRLEZft_RLnqoSNP3DV3-35" value="" style="verticalLabelPosition=bottom;verticalAlign=top;html=1;shape=mxgraph.basic.tick;fillColor=#d5e8d4;strokeColor=#82b366;" vertex="1" parent="1">
          <mxGeometry x="920" y="90" width="25" height="40" as="geometry" />
        </mxCell>
        <mxCell id="gRLEZft_RLnqoSNP3DV3-36" value="Low transform costs, easier to adopt" style="rounded=1;whiteSpace=wrap;html=1;fillColor=#fff2cc;strokeColor=#d6b656;" vertex="1" parent="1">
          <mxGeometry x="985" y="275" width="180" height="35" as="geometry" />
        </mxCell>
        <mxCell id="gRLEZft_RLnqoSNP3DV3-37" value="" style="verticalLabelPosition=bottom;verticalAlign=top;html=1;shape=mxgraph.basic.x;fillColor=#f8cecc;strokeColor=#b85450;" vertex="1" parent="1">
          <mxGeometry x="795" y="240" width="30" height="30" as="geometry" />
        </mxCell>
        <mxCell id="gRLEZft_RLnqoSNP3DV3-38" value="&lt;span style=&quot;font-size: 14px;&quot;&gt;&lt;b&gt;Facade&lt;/b&gt;&lt;br&gt;&lt;br&gt;Anti Corruption Layer&lt;/span&gt;&lt;div&gt;&lt;span style=&quot;font-size: 14px;&quot;&gt;&lt;b&gt;&lt;br&gt;&lt;/b&gt;&lt;/span&gt;&lt;/div&gt;" style="rounded=1;whiteSpace=wrap;html=1;fillColor=#dae8fc;strokeColor=#6c8ebf;" vertex="1" parent="1">
          <mxGeometry x="685" y="320" width="170" height="90" as="geometry" />
        </mxCell>
        <mxCell id="gRLEZft_RLnqoSNP3DV3-39" value="" style="shape=flexArrow;endArrow=classic;html=1;rounded=0;fillColor=#dae8fc;strokeColor=#6c8ebf;" edge="1" parent="1">
          <mxGeometry width="50" height="50" relative="1" as="geometry">
            <mxPoint x="769.5" y="230" as="sourcePoint" />
            <mxPoint x="769.5" y="300" as="targetPoint" />
          </mxGeometry>
        </mxCell>
        <mxCell id="gRLEZft_RLnqoSNP3DV3-41" value="" style="shape=mxgraph.signs.travel.pound;html=1;pointerEvents=1;fillColor=#000000;strokeColor=none;verticalLabelPosition=bottom;verticalAlign=top;align=center;" vertex="1" parent="1">
          <mxGeometry x="815" y="420" width="35" height="38" as="geometry" />
        </mxCell>
        <mxCell id="gRLEZft_RLnqoSNP3DV3-42" value="" style="shape=mxgraph.signs.travel.pound;html=1;pointerEvents=1;fillColor=#000000;strokeColor=none;verticalLabelPosition=bottom;verticalAlign=top;align=center;" vertex="1" parent="1">
          <mxGeometry x="691" y="420" width="35" height="38" as="geometry" />
        </mxCell>
        <mxCell id="gRLEZft_RLnqoSNP3DV3-43" value="High transform costs (especially within FHIR in UK). Harder to adopt" style="rounded=1;whiteSpace=wrap;html=1;fillColor=#fff2cc;strokeColor=#d6b656;" vertex="1" parent="1">
          <mxGeometry x="680" y="480" width="180" height="50" as="geometry" />
        </mxCell>
        <mxCell id="gRLEZft_RLnqoSNP3DV3-45" value="" style="shape=mxgraph.signs.travel.pound;html=1;pointerEvents=1;fillColor=#000000;strokeColor=none;verticalLabelPosition=bottom;verticalAlign=top;align=center;" vertex="1" parent="1">
          <mxGeometry x="1057.5" y="222" width="35" height="38" as="geometry" />
        </mxCell>
        <mxCell id="gRLEZft_RLnqoSNP3DV3-46" value="" style="shape=mxgraph.signs.travel.pound;html=1;pointerEvents=1;fillColor=#000000;strokeColor=none;verticalLabelPosition=bottom;verticalAlign=top;align=center;" vertex="1" parent="1">
          <mxGeometry x="752.5" y="420" width="35" height="38" as="geometry" />
        </mxCell>
        <mxCell id="gRLEZft_RLnqoSNP3DV3-48" value="" style="shape=flexArrow;endArrow=classic;html=1;rounded=0;fillColor=#dae8fc;strokeColor=#6c8ebf;" edge="1" parent="1">
          <mxGeometry width="50" height="50" relative="1" as="geometry">
            <mxPoint x="610" y="290" as="sourcePoint" />
            <mxPoint x="680" y="220" as="targetPoint" />
          </mxGeometry>
        </mxCell>
        <mxCell id="gRLEZft_RLnqoSNP3DV3-52" value="&lt;span style=&quot;font-size: 14px;&quot;&gt;&lt;b&gt;Data Transfers/Messaging&lt;/b&gt;&lt;/span&gt;" style="rounded=1;whiteSpace=wrap;html=1;fillColor=#dae8fc;strokeColor=#6c8ebf;" vertex="1" parent="1">
          <mxGeometry x="90" y="490" width="170" height="90" as="geometry" />
        </mxCell>
        <mxCell id="gRLEZft_RLnqoSNP3DV3-53" value="" style="shape=flexArrow;endArrow=classic;html=1;rounded=0;fillColor=#dae8fc;strokeColor=#6c8ebf;" edge="1" parent="1">
          <mxGeometry width="50" height="50" relative="1" as="geometry">
            <mxPoint x="280" y="530" as="sourcePoint" />
            <mxPoint x="660" y="410" as="targetPoint" />
          </mxGeometry>
        </mxCell>
      </root>
    </mxGraphModel>
  </diagram>
</mxfile>
